<?xml version="1.0" encoding="UTF-8"?>
<svg id="Layer_1" data-name="Layer 1" xmlns="http://www.w3.org/2000/svg" viewBox="0 0 923.86 256.65">
  <defs>
    <style>
      .cls-1 {
        fill: #114358;
        stroke-width: 0px;
      }
    </style>
  </defs>
  <path class="cls-1" d="M91.73,256.65c-20.73,0-37.93-3.85-51.63-11.53-13.71-7.68-23.81-19.3-30.33-34.84C3.26,194.75,0,175.45,0,152.39V39.1c0-12.7,3.26-22.22,9.78-28.57C16.29,4.18,25.57,1,37.6,1s21.38,3.18,28.07,9.52c6.68,6.35,10.03,15.88,10.03,28.57v115.29c0,14.71,3.01,25.65,9.02,32.83,6.02,7.19,15.54,10.78,28.57,10.78,14.36,0,26.14-5.09,35.34-15.29,9.18-10.19,13.78-23.64,13.78-40.35V39.1c0-12.7,3.26-22.22,9.78-28.57,6.52-6.35,15.79-9.52,27.82-9.52s21.81,3.18,28.32,9.52c6.52,6.35,9.78,15.88,9.78,28.57v177.95c0,25.74-12.2,38.6-36.59,38.6-12.03,0-21.23-3.35-27.57-10.03-6.35-6.68-9.36-16.27-9.36-28.64,0,0-.11.18,0,0-6.52,10.5-14.52,19-24.23,25.63-13.71,9.35-29.91,14.03-48.62,14.03Z"/>
  <path class="cls-1" d="M416.56,256.65c-26.74,0-50.05-5.26-69.93-15.79-19.89-10.52-35.18-25.48-45.87-44.86-10.7-19.38-16.04-42.27-16.04-68.67,0-19.72,3.01-37.42,9.02-53.14,6.02-15.7,14.79-29.07,26.32-40.1,11.53-11.03,25.48-19.46,41.86-25.31C378.29,2.93,396.51,0,416.56,0,426.91,0,437.94,1.25,449.64,3.76c11.69,2.51,23.22,6.77,34.59,12.78,6.68,3.01,11.28,7.27,13.79,12.78,2.51,5.51,3.43,11.2,2.76,17.04-.67,5.85-2.76,11.03-6.27,15.54-3.51,4.51-7.94,7.52-13.28,9.03-5.35,1.5-11.37.59-18.05-2.76-6.35-3.67-12.96-6.34-19.8-8.02-6.85-1.67-13.28-2.51-19.3-2.51-10.03,0-18.88,1.59-26.57,4.76-7.69,3.18-14.12,7.69-19.3,13.54-5.19,5.85-9.2,13.12-12.03,21.81-2.85,8.7-4.26,18.72-4.26,30.08,0,22.06,5.43,39.35,16.29,51.88,10.86,12.53,26.14,18.8,45.87,18.8,6.02,0,12.36-.75,19.05-2.25,6.68-1.51,13.36-4.09,20.05-7.77,6.68-3.34,12.7-4.17,18.05-2.51,5.34,1.68,9.6,4.76,12.78,9.27,3.17,4.51,5.01,9.7,5.51,15.54.5,5.85-.5,11.53-3.01,17.04-2.5,5.52-6.94,9.78-13.28,12.78-11.37,5.69-22.73,9.78-34.09,12.28-11.36,2.51-22.23,3.76-32.58,3.76Z"/>
  <path class="cls-1" d="M575.47,255.65c-12.37,0-21.8-3.35-28.32-10.03-6.52-6.68-9.78-16.21-9.78-28.57V39.1c0-12.36,3.26-21.81,9.78-28.32,6.52-6.52,15.62-9.78,27.32-9.78s21.22,3.26,27.57,9.78c6.35,6.52,9.52,15.96,9.52,28.32v1.38l.1-.17c6.4-10.46,14.89-19.22,25.46-26.27,14.04-9.35,30.58-14.04,49.63-14.04s34.92,4.51,47.62,13.54c10.66,7.58,18.77,18.57,24.25,32.98h0c7.19-13.02,17.09-23.59,29.64-31.73,15.21-9.85,32.66-14.79,52.39-14.79s34.66,3.76,46.87,11.28c12.2,7.52,21.31,18.88,27.32,34.09,6.02,15.21,9.03,34.51,9.03,57.9v113.79c0,12.37-3.26,21.89-9.78,28.57-6.52,6.68-15.79,10.03-27.82,10.03s-21.81-3.35-28.33-10.03c-6.52-6.68-9.77-16.21-9.77-28.57v-111.29c0-16.37-2.59-28.32-7.77-35.84-5.19-7.52-13.96-11.28-26.32-11.28-14.37,0-25.57,5.01-33.59,15.04-8.02,10.02-12.03,24.23-12.03,42.61v100.76c0,12.37-3.26,21.89-9.77,28.57-6.52,6.68-15.79,10.03-27.82,10.03s-21.39-3.35-28.07-10.03c-6.69-6.68-10.03-16.21-10.03-28.57v-111.29c0-16.37-2.59-28.32-7.77-35.84-5.19-7.52-13.96-11.28-26.32-11.28-14.37,0-25.57,5.01-33.59,15.04-8.02,10.02-12.03,24.23-12.03,42.61v100.76c0,25.74-12.53,38.6-37.6,38.6Z"/>
</svg>